<mxfile host="65bd71144e">
    <diagram name="Page-1" id="-UelpCdYEey4y5baOnSz">
        <mxGraphModel dx="1433" dy="976" grid="0" gridSize="10" guides="1" tooltips="1" connect="1" arrows="1" fold="1" page="0" pageScale="1" pageWidth="827" pageHeight="1169" math="0" shadow="0">
            <root>
                <mxCell id="0"/>
                <mxCell id="-plp4mE1TCrz63QN9HbG-12" value="Background Image" parent="0"/>
                <mxCell id="-plp4mE1TCrz63QN9HbG-13" value="" style="rounded=0;whiteSpace=wrap;html=1;fillColor=#CCCCCC;fontColor=#333333;strokeColor=#E6E6E6;shadow=1;" parent="-plp4mE1TCrz63QN9HbG-12" vertex="1">
                    <mxGeometry x="-268" y="-236" width="924" height="708" as="geometry"/>
                </mxCell>
                <mxCell id="1" parent="0"/>
                <mxCell id="WSuv4SzaL3Qnk7HgxCXB-26" value="BGP AS 400" style="rounded=0;whiteSpace=wrap;html=1;fillColor=#8EFFB7;strokeColor=#0e8088;verticalAlign=bottom;shadow=0;" parent="1" vertex="1">
                    <mxGeometry x="23" y="-39" width="301" height="307" as="geometry"/>
                </mxCell>
                <mxCell id="9" value="BGP AS 100" style="rounded=0;whiteSpace=wrap;html=1;fillColor=#FFFF99;strokeColor=#0e8088;verticalAlign=bottom;shadow=0;" parent="1" vertex="1">
                    <mxGeometry x="-194" y="-175" width="127" height="227" as="geometry"/>
                </mxCell>
                <mxCell id="10" value="BGP AS 200" style="rounded=0;whiteSpace=wrap;html=1;fillColor=#FFCCFF;strokeColor=#0e8088;verticalAlign=bottom;shadow=0;" parent="1" vertex="1">
                    <mxGeometry x="-42.5" y="309" width="106" height="120" as="geometry"/>
                </mxCell>
                <mxCell id="11" value="" style="sketch=0;points=[[0.5,0,0],[1,0.5,0],[0.5,1,0],[0,0.5,0],[0.145,0.145,0],[0.8555,0.145,0],[0.855,0.8555,0],[0.145,0.855,0]];verticalLabelPosition=bottom;html=1;verticalAlign=top;aspect=fixed;align=center;pointerEvents=1;shape=mxgraph.cisco19.rect;prIcon=router;fillColor=#FAFAFA;strokeColor=#0066CC;" parent="1" vertex="1">
                    <mxGeometry x="-14.5" y="355" width="50" height="50" as="geometry"/>
                </mxCell>
                <mxCell id="12" value="as200" style="text;html=1;align=center;verticalAlign=middle;resizable=0;points=[];autosize=1;strokeColor=none;fillColor=none;fontSize=11;fontFamily=Verdana;" parent="1" vertex="1">
                    <mxGeometry x="-16.5" y="332" width="51" height="25" as="geometry"/>
                </mxCell>
                <mxCell id="15" value="BGP AS 500" style="rounded=0;whiteSpace=wrap;html=1;fillColor=#99FFFF;strokeColor=#0e8088;verticalAlign=bottom;shadow=0;" parent="1" vertex="1">
                    <mxGeometry x="469" y="-159" width="112" height="114" as="geometry"/>
                </mxCell>
                <mxCell id="16" value="BGP AS 300" style="rounded=0;whiteSpace=wrap;html=1;fillColor=#FFB366;strokeColor=#0e8088;verticalAlign=bottom;shadow=0;" parent="1" vertex="1">
                    <mxGeometry x="330.5" y="309" width="110" height="120" as="geometry"/>
                </mxCell>
                <mxCell id="17" value="" style="sketch=0;points=[[0.5,0,0],[1,0.5,0],[0.5,1,0],[0,0.5,0],[0.145,0.145,0],[0.8555,0.145,0],[0.855,0.8555,0],[0.145,0.855,0]];verticalLabelPosition=bottom;html=1;verticalAlign=top;aspect=fixed;align=center;pointerEvents=1;shape=mxgraph.cisco19.rect;prIcon=router;fillColor=#FAFAFA;strokeColor=#005073;" parent="1" vertex="1">
                    <mxGeometry x="357" y="357" width="50" height="50" as="geometry"/>
                </mxCell>
                <mxCell id="18" value="as300" style="text;html=1;align=center;verticalAlign=middle;resizable=0;points=[];autosize=1;strokeColor=none;fillColor=none;fontSize=11;fontFamily=Verdana;" parent="1" vertex="1">
                    <mxGeometry x="360" y="329" width="51" height="25" as="geometry"/>
                </mxCell>
                <mxCell id="23" style="edgeStyle=none;curved=1;rounded=0;orthogonalLoop=1;jettySize=auto;html=1;fontSize=12;startSize=8;endSize=8;entryX=0.145;entryY=0.855;entryDx=0;entryDy=0;entryPerimeter=0;endArrow=none;endFill=0;strokeWidth=1;exitX=0.8555;exitY=0.145;exitDx=0;exitDy=0;exitPerimeter=0;strokeColor=#FF3399;" parent="1" source="11" target="WSuv4SzaL3Qnk7HgxCXB-63" edge="1">
                    <mxGeometry relative="1" as="geometry">
                        <mxPoint x="-139" y="314" as="targetPoint"/>
                        <mxPoint x="-136" y="457" as="sourcePoint"/>
                    </mxGeometry>
                </mxCell>
                <mxCell id="30" style="edgeStyle=none;curved=1;rounded=0;orthogonalLoop=1;jettySize=auto;html=1;entryX=0;entryY=0.5;entryDx=0;entryDy=0;entryPerimeter=0;fontSize=12;startSize=8;endSize=8;endArrow=none;endFill=0;exitX=0.5;exitY=1;exitDx=0;exitDy=0;exitPerimeter=0;strokeColor=#FF3399;" parent="1" source="WSuv4SzaL3Qnk7HgxCXB-59" target="11" edge="1">
                    <mxGeometry relative="1" as="geometry">
                        <mxPoint x="-264" y="169.14" as="sourcePoint"/>
                        <mxPoint x="-13" y="298.14" as="targetPoint"/>
                    </mxGeometry>
                </mxCell>
                <mxCell id="31" style="edgeStyle=none;curved=1;rounded=0;orthogonalLoop=1;jettySize=auto;html=1;entryX=0.8555;entryY=0.145;entryDx=0;entryDy=0;entryPerimeter=0;fontSize=12;startSize=8;endSize=8;endArrow=none;endFill=0;exitX=0.145;exitY=0.855;exitDx=0;exitDy=0;exitPerimeter=0;strokeColor=#FF3399;" parent="1" source="WSuv4SzaL3Qnk7HgxCXB-66" target="17" edge="1">
                    <mxGeometry relative="1" as="geometry">
                        <mxPoint x="-249" y="306" as="sourcePoint"/>
                        <mxPoint x="-49" y="588" as="targetPoint"/>
                    </mxGeometry>
                </mxCell>
                <mxCell id="33" value="" style="edgeStyle=none;curved=1;rounded=0;orthogonalLoop=1;jettySize=auto;html=1;entryX=0;entryY=0.5;entryDx=0;entryDy=0;entryPerimeter=0;fontSize=12;startSize=8;endSize=8;endArrow=none;endFill=0;strokeWidth=1;" parent="1" edge="1">
                    <mxGeometry relative="1" as="geometry">
                        <mxPoint x="112" y="217" as="sourcePoint"/>
                        <mxPoint x="246" y="217" as="targetPoint"/>
                    </mxGeometry>
                </mxCell>
                <mxCell id="WSuv4SzaL3Qnk7HgxCXB-57" value="Topology" parent="0"/>
                <mxCell id="WSuv4SzaL3Qnk7HgxCXB-58" value="" style="sketch=0;points=[[0.5,0,0],[1,0.5,0],[0.5,1,0],[0,0.5,0],[0.145,0.145,0],[0.8555,0.145,0],[0.855,0.8555,0],[0.145,0.855,0]];verticalLabelPosition=bottom;html=1;verticalAlign=top;aspect=fixed;align=center;pointerEvents=1;shape=mxgraph.cisco19.rect;prIcon=router;fillColor=#FAFAFA;strokeColor=#005073;" parent="WSuv4SzaL3Qnk7HgxCXB-57" vertex="1">
                    <mxGeometry x="-166" y="-134" width="50" height="50" as="geometry"/>
                </mxCell>
                <mxCell id="WSuv4SzaL3Qnk7HgxCXB-59" value="" style="sketch=0;points=[[0.5,0,0],[1,0.5,0],[0.5,1,0],[0,0.5,0],[0.145,0.145,0],[0.8555,0.145,0],[0.855,0.8555,0],[0.145,0.855,0]];verticalLabelPosition=bottom;html=1;verticalAlign=top;aspect=fixed;align=center;pointerEvents=1;shape=mxgraph.cisco19.rect;prIcon=router;fillColor=#FAFAFA;strokeColor=#005073;" parent="WSuv4SzaL3Qnk7HgxCXB-57" vertex="1">
                    <mxGeometry x="-166" y="-42" width="50" height="50" as="geometry"/>
                </mxCell>
                <mxCell id="WSuv4SzaL3Qnk7HgxCXB-63" value="" style="sketch=0;points=[[0.5,0,0],[1,0.5,0],[0.5,1,0],[0,0.5,0],[0.145,0.145,0],[0.8555,0.145,0],[0.855,0.8555,0],[0.145,0.855,0]];verticalLabelPosition=bottom;html=1;verticalAlign=top;aspect=fixed;align=center;pointerEvents=1;shape=mxgraph.cisco19.rect;prIcon=router;fillColor=#FAFAFA;strokeColor=#0066CC;" parent="WSuv4SzaL3Qnk7HgxCXB-57" vertex="1">
                    <mxGeometry x="62" y="190" width="50" height="50" as="geometry"/>
                </mxCell>
                <mxCell id="WSuv4SzaL3Qnk7HgxCXB-65" value="" style="sketch=0;points=[[0.5,0,0],[1,0.5,0],[0.5,1,0],[0,0.5,0],[0.145,0.145,0],[0.8555,0.145,0],[0.855,0.8555,0],[0.145,0.855,0]];verticalLabelPosition=bottom;html=1;verticalAlign=top;aspect=fixed;align=center;pointerEvents=1;shape=mxgraph.cisco19.rect;prIcon=router;fillColor=#FAFAFA;strokeColor=#FF6666;" parent="WSuv4SzaL3Qnk7HgxCXB-57" vertex="1">
                    <mxGeometry x="244" y="190" width="50" height="50" as="geometry"/>
                </mxCell>
                <mxCell id="WSuv4SzaL3Qnk7HgxCXB-66" value="" style="sketch=0;points=[[0.5,0,0],[1,0.5,0],[0.5,1,0],[0,0.5,0],[0.145,0.145,0],[0.8555,0.145,0],[0.855,0.8555,0],[0.145,0.855,0]];verticalLabelPosition=bottom;html=1;verticalAlign=top;aspect=fixed;align=center;pointerEvents=1;shape=mxgraph.cisco19.rect;prIcon=router;fillColor=#FAFAFA;strokeColor=#005073;" parent="WSuv4SzaL3Qnk7HgxCXB-57" vertex="1">
                    <mxGeometry x="500" y="-123" width="50" height="50" as="geometry"/>
                </mxCell>
                <mxCell id="WSuv4SzaL3Qnk7HgxCXB-69" style="edgeStyle=none;curved=1;rounded=0;orthogonalLoop=1;jettySize=auto;html=1;entryX=0;entryY=0.5;entryDx=0;entryDy=0;entryPerimeter=0;fontSize=12;startSize=8;endSize=8;endArrow=none;endFill=0;strokeColor=#FF3399;" parent="WSuv4SzaL3Qnk7HgxCXB-57" source="WSuv4SzaL3Qnk7HgxCXB-59" target="WSuv4SzaL3Qnk7HgxCXB-62" edge="1">
                    <mxGeometry relative="1" as="geometry"/>
                </mxCell>
                <mxCell id="WSuv4SzaL3Qnk7HgxCXB-70" style="edgeStyle=none;curved=1;rounded=0;orthogonalLoop=1;jettySize=auto;html=1;entryX=0;entryY=0.5;entryDx=0;entryDy=0;entryPerimeter=0;fontSize=12;startSize=8;endSize=8;endArrow=none;endFill=0;strokeColor=#FF3399;" parent="WSuv4SzaL3Qnk7HgxCXB-57" source="WSuv4SzaL3Qnk7HgxCXB-58" target="WSuv4SzaL3Qnk7HgxCXB-62" edge="1">
                    <mxGeometry relative="1" as="geometry"/>
                </mxCell>
                <mxCell id="WSuv4SzaL3Qnk7HgxCXB-72" style="edgeStyle=none;curved=1;rounded=0;orthogonalLoop=1;jettySize=auto;html=1;entryX=0;entryY=0.5;entryDx=0;entryDy=0;entryPerimeter=0;fontSize=12;startSize=8;endSize=8;endArrow=none;endFill=0;strokeWidth=1;exitX=1;exitY=0.5;exitDx=0;exitDy=0;exitPerimeter=0;strokeColor=#FF3399;" parent="WSuv4SzaL3Qnk7HgxCXB-57" source="11" target="17" edge="1">
                    <mxGeometry relative="1" as="geometry">
                        <mxPoint x="116.99999999999977" y="375" as="sourcePoint"/>
                        <mxPoint x="249" y="375" as="targetPoint"/>
                    </mxGeometry>
                </mxCell>
                <mxCell id="WSuv4SzaL3Qnk7HgxCXB-73" style="edgeStyle=none;curved=1;rounded=0;orthogonalLoop=1;jettySize=auto;html=1;fontSize=12;startSize=8;endSize=8;entryX=0.5;entryY=1;entryDx=0;entryDy=0;entryPerimeter=0;endArrow=none;endFill=0;strokeWidth=1;" parent="WSuv4SzaL3Qnk7HgxCXB-57" source="WSuv4SzaL3Qnk7HgxCXB-63" target="WSuv4SzaL3Qnk7HgxCXB-62" edge="1">
                    <mxGeometry relative="1" as="geometry">
                        <mxPoint x="325" y="31" as="targetPoint"/>
                    </mxGeometry>
                </mxCell>
                <mxCell id="WSuv4SzaL3Qnk7HgxCXB-74" style="edgeStyle=none;curved=1;rounded=0;orthogonalLoop=1;jettySize=auto;html=1;entryX=0.5;entryY=0;entryDx=0;entryDy=0;entryPerimeter=0;fontSize=12;startSize=8;endSize=8;endArrow=none;endFill=0;strokeWidth=1;" parent="WSuv4SzaL3Qnk7HgxCXB-57" source="WSuv4SzaL3Qnk7HgxCXB-64" target="WSuv4SzaL3Qnk7HgxCXB-65" edge="1">
                    <mxGeometry relative="1" as="geometry"/>
                </mxCell>
                <mxCell id="WSuv4SzaL3Qnk7HgxCXB-76" style="edgeStyle=none;curved=1;rounded=0;orthogonalLoop=1;jettySize=auto;html=1;entryX=0;entryY=0.5;entryDx=0;entryDy=0;entryPerimeter=0;fontSize=12;startSize=8;endSize=8;endArrow=none;endFill=0;strokeColor=#FF3399;" parent="WSuv4SzaL3Qnk7HgxCXB-57" source="WSuv4SzaL3Qnk7HgxCXB-58" target="WSuv4SzaL3Qnk7HgxCXB-63" edge="1">
                    <mxGeometry relative="1" as="geometry"/>
                </mxCell>
                <mxCell id="WSuv4SzaL3Qnk7HgxCXB-77" style="edgeStyle=none;curved=1;rounded=0;orthogonalLoop=1;jettySize=auto;html=1;entryX=0;entryY=0.5;entryDx=0;entryDy=0;entryPerimeter=0;fontSize=12;startSize=8;endSize=8;endArrow=none;endFill=0;strokeColor=#FF3399;" parent="WSuv4SzaL3Qnk7HgxCXB-57" source="WSuv4SzaL3Qnk7HgxCXB-59" target="WSuv4SzaL3Qnk7HgxCXB-63" edge="1">
                    <mxGeometry relative="1" as="geometry"/>
                </mxCell>
                <mxCell id="WSuv4SzaL3Qnk7HgxCXB-80" style="edgeStyle=none;curved=1;rounded=0;orthogonalLoop=1;jettySize=auto;html=1;entryX=0;entryY=0.5;entryDx=0;entryDy=0;entryPerimeter=0;fontSize=12;startSize=8;endSize=8;endArrow=none;endFill=0;strokeColor=#FF3399;" parent="WSuv4SzaL3Qnk7HgxCXB-57" source="WSuv4SzaL3Qnk7HgxCXB-64" target="WSuv4SzaL3Qnk7HgxCXB-66" edge="1">
                    <mxGeometry relative="1" as="geometry"/>
                </mxCell>
                <mxCell id="WSuv4SzaL3Qnk7HgxCXB-81" style="edgeStyle=none;curved=1;rounded=0;orthogonalLoop=1;jettySize=auto;html=1;entryX=0;entryY=0.5;entryDx=0;entryDy=0;entryPerimeter=0;fontSize=12;startSize=8;endSize=8;endArrow=none;endFill=0;strokeColor=#FF3399;" parent="WSuv4SzaL3Qnk7HgxCXB-57" source="WSuv4SzaL3Qnk7HgxCXB-65" target="WSuv4SzaL3Qnk7HgxCXB-66" edge="1">
                    <mxGeometry relative="1" as="geometry"/>
                </mxCell>
                <mxCell id="WSuv4SzaL3Qnk7HgxCXB-62" value="" style="sketch=0;points=[[0.5,0,0],[1,0.5,0],[0.5,1,0],[0,0.5,0],[0.145,0.145,0],[0.8555,0.145,0],[0.855,0.8555,0],[0.145,0.855,0]];verticalLabelPosition=bottom;html=1;verticalAlign=top;aspect=fixed;align=center;pointerEvents=1;shape=mxgraph.cisco19.rect;prIcon=router;fillColor=#FAFAFA;strokeColor=#FF6666;" parent="WSuv4SzaL3Qnk7HgxCXB-57" vertex="1">
                    <mxGeometry x="59" y="-3" width="50" height="50" as="geometry"/>
                </mxCell>
                <mxCell id="14" value="" style="edgeStyle=none;curved=1;rounded=0;orthogonalLoop=1;jettySize=auto;html=1;entryX=0;entryY=0.5;entryDx=0;entryDy=0;entryPerimeter=0;fontSize=12;startSize=8;endSize=8;endArrow=none;endFill=0;strokeWidth=1;" parent="WSuv4SzaL3Qnk7HgxCXB-57" source="WSuv4SzaL3Qnk7HgxCXB-62" target="WSuv4SzaL3Qnk7HgxCXB-64" edge="1">
                    <mxGeometry relative="1" as="geometry">
                        <mxPoint x="149" y="21" as="sourcePoint"/>
                        <mxPoint x="322" y="20.5" as="targetPoint"/>
                    </mxGeometry>
                </mxCell>
                <mxCell id="WSuv4SzaL3Qnk7HgxCXB-64" value="" style="sketch=0;points=[[0.5,0,0],[1,0.5,0],[0.5,1,0],[0,0.5,0],[0.145,0.145,0],[0.8555,0.145,0],[0.855,0.8555,0],[0.145,0.855,0]];verticalLabelPosition=bottom;html=1;verticalAlign=top;aspect=fixed;align=center;pointerEvents=1;shape=mxgraph.cisco19.rect;prIcon=router;fillColor=#FAFAFA;strokeColor=#0066CC;" parent="WSuv4SzaL3Qnk7HgxCXB-57" vertex="1">
                    <mxGeometry x="243" y="-3" width="50" height="50" as="geometry"/>
                </mxCell>
                <mxCell id="56" style="edgeStyle=none;curved=1;rounded=0;orthogonalLoop=1;jettySize=auto;html=1;entryX=0.145;entryY=0.145;entryDx=0;entryDy=0;entryPerimeter=0;fontSize=12;startSize=8;endSize=8;endArrow=none;endFill=0;strokeWidth=1;strokeColor=#FF3399;exitX=0.922;exitY=0.338;exitDx=0;exitDy=0;exitPerimeter=0;" edge="1" parent="WSuv4SzaL3Qnk7HgxCXB-57" source="WSuv4SzaL3Qnk7HgxCXB-58" target="WSuv4SzaL3Qnk7HgxCXB-66">
                    <mxGeometry relative="1" as="geometry">
                        <mxPoint x="-104" y="-119" as="sourcePoint"/>
                        <mxPoint x="200" y="-117" as="targetPoint"/>
                    </mxGeometry>
                </mxCell>
                <mxCell id="25" style="edgeStyle=none;curved=1;rounded=0;orthogonalLoop=1;jettySize=auto;html=1;fontSize=12;startSize=8;endSize=8;entryX=0.667;entryY=-0.22;entryDx=0;entryDy=0;entryPerimeter=0;endArrow=none;endFill=0;strokeWidth=1;exitX=0.145;exitY=0.145;exitDx=0;exitDy=0;exitPerimeter=0;strokeColor=#FF3399;" parent="WSuv4SzaL3Qnk7HgxCXB-57" source="17" target="WSuv4SzaL3Qnk7HgxCXB-55" edge="1">
                    <mxGeometry relative="1" as="geometry">
                        <mxPoint x="206.73" y="271.25" as="targetPoint"/>
                        <mxPoint x="165.73" y="414.25" as="sourcePoint"/>
                    </mxGeometry>
                </mxCell>
                <mxCell id="WSuv4SzaL3Qnk7HgxCXB-48" value="Hostnames" parent="0"/>
                <mxCell id="WSuv4SzaL3Qnk7HgxCXB-49" value="as400-1" style="text;html=1;align=center;verticalAlign=middle;resizable=0;points=[];autosize=1;strokeColor=none;fillColor=none;fontSize=11;fontFamily=Verdana;" parent="WSuv4SzaL3Qnk7HgxCXB-48" vertex="1">
                    <mxGeometry x="56" y="-28" width="63" height="25" as="geometry"/>
                </mxCell>
                <mxCell id="WSuv4SzaL3Qnk7HgxCXB-50" value="as400-3" style="text;html=1;align=center;verticalAlign=middle;resizable=0;points=[];autosize=1;strokeColor=none;fillColor=none;fontSize=11;fontFamily=Verdana;" parent="WSuv4SzaL3Qnk7HgxCXB-48" vertex="1">
                    <mxGeometry x="54" y="238" width="63" height="25" as="geometry"/>
                </mxCell>
                <mxCell id="WSuv4SzaL3Qnk7HgxCXB-51" value="as500" style="text;html=1;align=center;verticalAlign=middle;resizable=0;points=[];autosize=1;strokeColor=none;fillColor=none;fontSize=11;fontFamily=Verdana;" parent="WSuv4SzaL3Qnk7HgxCXB-48" vertex="1">
                    <mxGeometry x="498" y="-147" width="51" height="25" as="geometry"/>
                </mxCell>
                <mxCell id="WSuv4SzaL3Qnk7HgxCXB-52" value="as100-2" style="text;html=1;align=center;verticalAlign=middle;resizable=0;points=[];autosize=1;strokeColor=none;fillColor=none;fontSize=11;fontFamily=Verdana;" parent="WSuv4SzaL3Qnk7HgxCXB-48" vertex="1">
                    <mxGeometry x="-170" y="-64" width="63" height="25" as="geometry"/>
                </mxCell>
                <mxCell id="WSuv4SzaL3Qnk7HgxCXB-55" value="as400-4" style="text;html=1;align=center;verticalAlign=middle;resizable=0;points=[];autosize=1;strokeColor=none;fillColor=none;fontSize=11;fontFamily=Verdana;" parent="WSuv4SzaL3Qnk7HgxCXB-48" vertex="1">
                    <mxGeometry x="238" y="240" width="63" height="25" as="geometry"/>
                </mxCell>
                <mxCell id="WSuv4SzaL3Qnk7HgxCXB-56" value="as400-2" style="text;html=1;align=center;verticalAlign=middle;resizable=0;points=[];autosize=1;strokeColor=none;fillColor=none;fontSize=11;fontFamily=Verdana;" parent="WSuv4SzaL3Qnk7HgxCXB-48" vertex="1">
                    <mxGeometry x="234" y="-27" width="63" height="25" as="geometry"/>
                </mxCell>
                <mxCell id="WSuv4SzaL3Qnk7HgxCXB-101" value="as100-1" style="text;html=1;align=center;verticalAlign=middle;resizable=0;points=[];autosize=1;strokeColor=none;fillColor=none;fontSize=11;fontFamily=Verdana;" parent="WSuv4SzaL3Qnk7HgxCXB-48" vertex="1">
                    <mxGeometry x="-170" y="-157" width="63" height="25" as="geometry"/>
                </mxCell>
                <mxCell id="WSuv4SzaL3Qnk7HgxCXB-106" value="Interfaces" parent="0"/>
                <mxCell id="WSuv4SzaL3Qnk7HgxCXB-115" value="eth1" style="text;html=1;align=center;verticalAlign=middle;resizable=0;points=[];autosize=1;strokeColor=none;fillColor=none;fontSize=8;fontFamily=Verdana;rotation=30;" parent="WSuv4SzaL3Qnk7HgxCXB-106" vertex="1">
                    <mxGeometry x="-121" y="-109" width="36" height="22" as="geometry"/>
                </mxCell>
                <mxCell id="WSuv4SzaL3Qnk7HgxCXB-116" value="eth2" style="text;html=1;align=center;verticalAlign=middle;resizable=0;points=[];autosize=1;strokeColor=none;fillColor=none;fontSize=8;fontFamily=Verdana;rotation=60;" parent="WSuv4SzaL3Qnk7HgxCXB-106" vertex="1">
                    <mxGeometry x="-129" y="-91" width="36" height="22" as="geometry"/>
                </mxCell>
                <mxCell id="WSuv4SzaL3Qnk7HgxCXB-117" value="eth1" style="text;html=1;align=center;verticalAlign=middle;resizable=0;points=[];autosize=1;strokeColor=none;fillColor=none;fontSize=8;fontFamily=Verdana;" parent="WSuv4SzaL3Qnk7HgxCXB-106" vertex="1">
                    <mxGeometry x="-117" y="-31" width="36" height="22" as="geometry"/>
                </mxCell>
                <mxCell id="WSuv4SzaL3Qnk7HgxCXB-118" value="eth2" style="text;html=1;align=center;verticalAlign=middle;resizable=0;points=[];autosize=1;strokeColor=none;fillColor=none;fontSize=8;fontFamily=Verdana;rotation=40;" parent="WSuv4SzaL3Qnk7HgxCXB-106" vertex="1">
                    <mxGeometry x="-121" y="-1" width="36" height="22" as="geometry"/>
                </mxCell>
                <mxCell id="WSuv4SzaL3Qnk7HgxCXB-123" value="eth1" style="text;html=1;align=center;verticalAlign=middle;resizable=0;points=[];autosize=1;strokeColor=none;fillColor=none;fontSize=8;fontFamily=Verdana;rotation=30;" parent="WSuv4SzaL3Qnk7HgxCXB-106" vertex="1">
                    <mxGeometry x="28" y="-7" width="36" height="22" as="geometry"/>
                </mxCell>
                <mxCell id="WSuv4SzaL3Qnk7HgxCXB-124" value="eth2" style="text;html=1;align=center;verticalAlign=middle;resizable=0;points=[];autosize=1;strokeColor=none;fillColor=none;fontSize=8;fontFamily=Verdana;" parent="WSuv4SzaL3Qnk7HgxCXB-106" vertex="1">
                    <mxGeometry x="21" y="16" width="36" height="22" as="geometry"/>
                </mxCell>
                <mxCell id="WSuv4SzaL3Qnk7HgxCXB-129" value="eth1" style="text;html=1;align=center;verticalAlign=middle;resizable=0;points=[];autosize=1;strokeColor=none;fillColor=none;fontSize=8;fontFamily=Verdana;rotation=45;" parent="WSuv4SzaL3Qnk7HgxCXB-106" vertex="1">
                    <mxGeometry x="28" y="163" width="36" height="22" as="geometry"/>
                </mxCell>
                <mxCell id="WSuv4SzaL3Qnk7HgxCXB-130" value="eth2" style="text;html=1;align=center;verticalAlign=middle;resizable=0;points=[];autosize=1;strokeColor=none;fillColor=none;fontSize=8;fontFamily=Verdana;rotation=45;" parent="WSuv4SzaL3Qnk7HgxCXB-106" vertex="1">
                    <mxGeometry x="23" y="188" width="36" height="22" as="geometry"/>
                </mxCell>
                <mxCell id="WSuv4SzaL3Qnk7HgxCXB-133" value="eth5" style="text;html=1;align=center;verticalAlign=middle;resizable=0;points=[];autosize=1;strokeColor=none;fillColor=none;fontSize=8;fontFamily=Verdana;" parent="WSuv4SzaL3Qnk7HgxCXB-106" vertex="1">
                    <mxGeometry x="53" y="40" width="36" height="22" as="geometry"/>
                </mxCell>
                <mxCell id="WSuv4SzaL3Qnk7HgxCXB-134" value="eth5" style="text;html=1;align=center;verticalAlign=middle;resizable=0;points=[];autosize=1;strokeColor=none;fillColor=none;fontSize=8;fontFamily=Verdana;" parent="WSuv4SzaL3Qnk7HgxCXB-106" vertex="1">
                    <mxGeometry x="53" y="175" width="36" height="22" as="geometry"/>
                </mxCell>
                <mxCell id="WSuv4SzaL3Qnk7HgxCXB-138" value="eth4" style="text;html=1;align=center;verticalAlign=middle;resizable=0;points=[];autosize=1;strokeColor=none;fillColor=none;fontSize=8;fontFamily=Verdana;rotation=-75;" parent="WSuv4SzaL3Qnk7HgxCXB-106" vertex="1">
                    <mxGeometry x="38" y="232" width="36" height="22" as="geometry"/>
                </mxCell>
                <mxCell id="WSuv4SzaL3Qnk7HgxCXB-139" value="eth4" style="text;html=1;align=center;verticalAlign=middle;resizable=0;points=[];autosize=1;strokeColor=none;fillColor=none;fontSize=8;fontFamily=Verdana;rotation=60;" parent="WSuv4SzaL3Qnk7HgxCXB-106" vertex="1">
                    <mxGeometry x="288" y="238" width="36" height="22" as="geometry"/>
                </mxCell>
                <mxCell id="WSuv4SzaL3Qnk7HgxCXB-141" value="eth5" style="text;html=1;align=center;verticalAlign=middle;resizable=0;points=[];autosize=1;strokeColor=none;fillColor=none;fontSize=8;fontFamily=Verdana;" parent="WSuv4SzaL3Qnk7HgxCXB-106" vertex="1">
                    <mxGeometry x="264" y="166" width="36" height="22" as="geometry"/>
                </mxCell>
                <mxCell id="WSuv4SzaL3Qnk7HgxCXB-142" value="eth5" style="text;html=1;align=center;verticalAlign=middle;resizable=0;points=[];autosize=1;strokeColor=none;fillColor=none;fontSize=8;fontFamily=Verdana;rotation=0;" parent="WSuv4SzaL3Qnk7HgxCXB-106" vertex="1">
                    <mxGeometry x="268" y="46" width="36" height="22" as="geometry"/>
                </mxCell>
                <mxCell id="WSuv4SzaL3Qnk7HgxCXB-143" value="eth1" style="text;html=1;align=center;verticalAlign=middle;resizable=0;points=[];autosize=1;strokeColor=none;fillColor=none;fontSize=8;fontFamily=Verdana;rotation=-30;" parent="WSuv4SzaL3Qnk7HgxCXB-106" vertex="1">
                    <mxGeometry x="294" y="1" width="36" height="22" as="geometry"/>
                </mxCell>
                <mxCell id="WSuv4SzaL3Qnk7HgxCXB-144" value="eth2" style="text;html=1;align=center;verticalAlign=middle;resizable=0;points=[];autosize=1;strokeColor=none;fillColor=none;fontSize=8;fontFamily=Verdana;rotation=-50;" parent="WSuv4SzaL3Qnk7HgxCXB-106" vertex="1">
                    <mxGeometry x="289" y="166" width="36" height="22" as="geometry"/>
                </mxCell>
                <mxCell id="WSuv4SzaL3Qnk7HgxCXB-145" value="eth1" style="text;html=1;align=center;verticalAlign=middle;resizable=0;points=[];autosize=1;strokeColor=none;fillColor=none;fontSize=8;fontFamily=Verdana;rotation=-30;" parent="WSuv4SzaL3Qnk7HgxCXB-106" vertex="1">
                    <mxGeometry x="462" y="-108" width="36" height="22" as="geometry"/>
                </mxCell>
                <mxCell id="WSuv4SzaL3Qnk7HgxCXB-146" value="eth2" style="text;html=1;align=center;verticalAlign=middle;resizable=0;points=[];autosize=1;strokeColor=none;fillColor=none;fontSize=8;fontFamily=Verdana;rotation=-55;" parent="WSuv4SzaL3Qnk7HgxCXB-106" vertex="1">
                    <mxGeometry x="471" y="-78" width="36" height="22" as="geometry"/>
                </mxCell>
                <mxCell id="59" value="eth3" style="text;html=1;align=center;verticalAlign=middle;resizable=0;points=[];autosize=1;strokeColor=none;fillColor=none;fontSize=8;fontFamily=Verdana;rotation=0;" vertex="1" parent="WSuv4SzaL3Qnk7HgxCXB-106">
                    <mxGeometry x="-115" y="-135" width="36" height="22" as="geometry"/>
                </mxCell>
                <mxCell id="60" value="eth3" style="text;html=1;align=center;verticalAlign=middle;resizable=0;points=[];autosize=1;strokeColor=none;fillColor=none;fontSize=8;fontFamily=Verdana;rotation=65;" vertex="1" parent="WSuv4SzaL3Qnk7HgxCXB-106">
                    <mxGeometry x="-143" y="13" width="36" height="22" as="geometry"/>
                </mxCell>
                <mxCell id="82" value="eth3" style="text;html=1;align=center;verticalAlign=middle;resizable=0;points=[];autosize=1;strokeColor=none;fillColor=none;fontSize=8;fontFamily=Verdana;rotation=0;" vertex="1" parent="WSuv4SzaL3Qnk7HgxCXB-106">
                    <mxGeometry x="426" y="-139" width="36" height="22" as="geometry"/>
                </mxCell>
                <mxCell id="83" value="eth3" style="text;html=1;align=center;verticalAlign=middle;resizable=0;points=[];autosize=1;strokeColor=none;fillColor=none;fontSize=8;fontFamily=Verdana;rotation=65;" vertex="1" parent="WSuv4SzaL3Qnk7HgxCXB-106">
                    <mxGeometry x="-38" y="332" width="36" height="22" as="geometry"/>
                </mxCell>
                <mxCell id="84" value="eth4" style="text;html=1;align=center;verticalAlign=middle;resizable=0;points=[];autosize=1;strokeColor=none;fillColor=none;fontSize=8;fontFamily=Verdana;rotation=-75;" vertex="1" parent="WSuv4SzaL3Qnk7HgxCXB-106">
                    <mxGeometry x="23" y="340" width="36" height="22" as="geometry"/>
                </mxCell>
                <mxCell id="87" value="eth3" style="text;html=1;align=center;verticalAlign=middle;resizable=0;points=[];autosize=1;strokeColor=none;fillColor=none;fontSize=8;fontFamily=Verdana;rotation=0;" vertex="1" parent="WSuv4SzaL3Qnk7HgxCXB-106">
                    <mxGeometry x="109" y="-1" width="36" height="22" as="geometry"/>
                </mxCell>
                <mxCell id="88" value="eth3" style="text;html=1;align=center;verticalAlign=middle;resizable=0;points=[];autosize=1;strokeColor=none;fillColor=none;fontSize=8;fontFamily=Verdana;rotation=0;" vertex="1" parent="WSuv4SzaL3Qnk7HgxCXB-106">
                    <mxGeometry x="202" y="-1" width="36" height="22" as="geometry"/>
                </mxCell>
                <mxCell id="89" value="eth3" style="text;html=1;align=center;verticalAlign=middle;resizable=0;points=[];autosize=1;strokeColor=none;fillColor=none;fontSize=8;fontFamily=Verdana;rotation=0;" vertex="1" parent="WSuv4SzaL3Qnk7HgxCXB-106">
                    <mxGeometry x="208" y="192" width="36" height="22" as="geometry"/>
                </mxCell>
                <mxCell id="90" value="eth3" style="text;html=1;align=center;verticalAlign=middle;resizable=0;points=[];autosize=1;strokeColor=none;fillColor=none;fontSize=8;fontFamily=Verdana;rotation=0;" vertex="1" parent="WSuv4SzaL3Qnk7HgxCXB-106">
                    <mxGeometry x="109" y="192" width="36" height="22" as="geometry"/>
                </mxCell>
                <mxCell id="91" value="eth4" style="text;html=1;align=center;verticalAlign=middle;resizable=0;points=[];autosize=1;strokeColor=none;fillColor=none;fontSize=8;fontFamily=Verdana;rotation=60;" vertex="1" parent="WSuv4SzaL3Qnk7HgxCXB-106">
                    <mxGeometry x="330" y="343" width="36" height="22" as="geometry"/>
                </mxCell>
                <mxCell id="92" value="eth2" style="text;html=1;align=center;verticalAlign=middle;resizable=0;points=[];autosize=1;strokeColor=none;fillColor=none;fontSize=8;fontFamily=Verdana;rotation=-70;" vertex="1" parent="WSuv4SzaL3Qnk7HgxCXB-106">
                    <mxGeometry x="396" y="350" width="36" height="22" as="geometry"/>
                </mxCell>
                <mxCell id="93" value="eth1" style="text;html=1;align=center;verticalAlign=middle;resizable=0;points=[];autosize=1;strokeColor=none;fillColor=none;fontSize=8;fontFamily=Verdana;rotation=0;" vertex="1" parent="WSuv4SzaL3Qnk7HgxCXB-106">
                    <mxGeometry x="28" y="381" width="36" height="22" as="geometry"/>
                </mxCell>
                <mxCell id="94" value="eth1" style="text;html=1;align=center;verticalAlign=middle;resizable=0;points=[];autosize=1;strokeColor=none;fillColor=none;fontSize=8;fontFamily=Verdana;rotation=0;" vertex="1" parent="WSuv4SzaL3Qnk7HgxCXB-106">
                    <mxGeometry x="326" y="379" width="36" height="22" as="geometry"/>
                </mxCell>
                <mxCell id="95" value="eth5" style="text;html=1;align=center;verticalAlign=middle;resizable=0;points=[];autosize=1;strokeColor=none;fillColor=none;fontSize=8;fontFamily=Verdana;rotation=-75;" vertex="1" parent="WSuv4SzaL3Qnk7HgxCXB-106">
                    <mxGeometry x="483" y="-37" width="36" height="22" as="geometry"/>
                </mxCell>
                <mxCell id="WSuv4SzaL3Qnk7HgxCXB-154" value="VRF Clients" parent="0" visible="0"/>
                <mxCell id="WSuv4SzaL3Qnk7HgxCXB-155" value="CLIENTS" style="shape=process;whiteSpace=wrap;html=1;backgroundOutline=1;fillColor=#d0cee2;strokeColor=#56517e;fontSize=9;" parent="WSuv4SzaL3Qnk7HgxCXB-154" vertex="1">
                    <mxGeometry x="-254" y="-10" width="77" height="21" as="geometry"/>
                </mxCell>
                <mxCell id="WSuv4SzaL3Qnk7HgxCXB-156" value="CLIENTS" style="shape=process;whiteSpace=wrap;html=1;backgroundOutline=1;fillColor=#d0cee2;strokeColor=#56517e;fontSize=9;" parent="WSuv4SzaL3Qnk7HgxCXB-154" vertex="1">
                    <mxGeometry x="-254" y="88" width="77" height="21" as="geometry"/>
                </mxCell>
                <mxCell id="WSuv4SzaL3Qnk7HgxCXB-159" value="CLIENTS" style="shape=process;whiteSpace=wrap;html=1;backgroundOutline=1;fillColor=#d0cee2;strokeColor=#56517e;fontSize=9;" parent="WSuv4SzaL3Qnk7HgxCXB-154" vertex="1">
                    <mxGeometry x="-470" y="11" width="77" height="21" as="geometry"/>
                </mxCell>
                <mxCell id="WSuv4SzaL3Qnk7HgxCXB-190" style="edgeStyle=none;curved=1;rounded=0;orthogonalLoop=1;jettySize=auto;html=1;fontSize=12;startSize=8;endSize=8;strokeColor=#97D077;endArrow=classicThin;endFill=1;startArrow=classicThin;startFill=1;" parent="WSuv4SzaL3Qnk7HgxCXB-154" edge="1">
                    <mxGeometry relative="1" as="geometry">
                        <mxPoint x="752.6774193548385" y="99.9677419354839" as="targetPoint"/>
                        <mxPoint x="675" y="100" as="sourcePoint"/>
                    </mxGeometry>
                </mxCell>
                <mxCell id="WSuv4SzaL3Qnk7HgxCXB-191" value="static" style="edgeLabel;html=1;align=center;verticalAlign=middle;resizable=0;points=[];fontSize=9;fontColor=#97D077;" parent="WSuv4SzaL3Qnk7HgxCXB-190" vertex="1" connectable="0">
                    <mxGeometry x="0.0864" relative="1" as="geometry">
                        <mxPoint as="offset"/>
                    </mxGeometry>
                </mxCell>
                <mxCell id="WSuv4SzaL3Qnk7HgxCXB-161" value="vlan 1810" style="ellipse;whiteSpace=wrap;html=1;fontSize=7;fillColor=#d0cee2;strokeColor=#56517e;" parent="WSuv4SzaL3Qnk7HgxCXB-154" vertex="1">
                    <mxGeometry x="-397" y="12" width="44" height="20" as="geometry"/>
                </mxCell>
                <mxCell id="WSuv4SzaL3Qnk7HgxCXB-162" value="vlan 1810" style="ellipse;whiteSpace=wrap;html=1;fontSize=7;fillColor=#d0cee2;strokeColor=#56517e;" parent="WSuv4SzaL3Qnk7HgxCXB-154" vertex="1">
                    <mxGeometry x="-276" y="-23" width="44" height="20" as="geometry"/>
                </mxCell>
                <mxCell id="WSuv4SzaL3Qnk7HgxCXB-163" value="vlan 1810" style="ellipse;whiteSpace=wrap;html=1;fontSize=7;fillColor=#d0cee2;strokeColor=#56517e;" parent="WSuv4SzaL3Qnk7HgxCXB-154" vertex="1">
                    <mxGeometry x="-278" y="73" width="44" height="20" as="geometry"/>
                </mxCell>
                <mxCell id="WSuv4SzaL3Qnk7HgxCXB-166" value="Lo1018" style="ellipse;whiteSpace=wrap;html=1;aspect=fixed;fillColor=#d0cee2;strokeColor=#56517e;fontSize=6;" parent="WSuv4SzaL3Qnk7HgxCXB-154" vertex="1">
                    <mxGeometry x="-229.5" y="-31" width="28" height="28" as="geometry"/>
                </mxCell>
                <mxCell id="WSuv4SzaL3Qnk7HgxCXB-167" value="Lo1018" style="ellipse;whiteSpace=wrap;html=1;aspect=fixed;fillColor=#d0cee2;strokeColor=#56517e;fontSize=6;" parent="WSuv4SzaL3Qnk7HgxCXB-154" vertex="1">
                    <mxGeometry x="-227" y="65" width="28" height="28" as="geometry"/>
                </mxCell>
                <mxCell id="WSuv4SzaL3Qnk7HgxCXB-171" style="edgeStyle=none;curved=1;rounded=0;orthogonalLoop=1;jettySize=auto;html=1;fontSize=12;startSize=8;endSize=8;strokeColor=#FF0000;endArrow=classicThin;endFill=1;" parent="WSuv4SzaL3Qnk7HgxCXB-154" source="WSuv4SzaL3Qnk7HgxCXB-161" target="WSuv4SzaL3Qnk7HgxCXB-166" edge="1">
                    <mxGeometry relative="1" as="geometry"/>
                </mxCell>
                <mxCell id="WSuv4SzaL3Qnk7HgxCXB-172" style="edgeStyle=none;curved=1;rounded=0;orthogonalLoop=1;jettySize=auto;html=1;fontSize=12;startSize=8;endSize=8;strokeColor=#FF0000;endArrow=classicThin;endFill=1;exitX=0.876;exitY=0.612;exitDx=0;exitDy=0;exitPerimeter=0;" parent="WSuv4SzaL3Qnk7HgxCXB-154" source="WSuv4SzaL3Qnk7HgxCXB-161" target="WSuv4SzaL3Qnk7HgxCXB-167" edge="1">
                    <mxGeometry relative="1" as="geometry">
                        <mxPoint x="-346" y="27" as="sourcePoint"/>
                        <mxPoint x="-219" y="-4" as="targetPoint"/>
                    </mxGeometry>
                </mxCell>
                <mxCell id="WSuv4SzaL3Qnk7HgxCXB-175" value="CLIENTS" style="shape=process;whiteSpace=wrap;html=1;backgroundOutline=1;fillColor=#d0cee2;strokeColor=#56517e;fontSize=9;" parent="WSuv4SzaL3Qnk7HgxCXB-154" vertex="1">
                    <mxGeometry x="788" y="101" width="77" height="21" as="geometry"/>
                </mxCell>
                <mxCell id="WSuv4SzaL3Qnk7HgxCXB-176" value="vlan 1810" style="ellipse;whiteSpace=wrap;html=1;fontSize=7;fillColor=#d0cee2;strokeColor=#56517e;" parent="WSuv4SzaL3Qnk7HgxCXB-154" vertex="1">
                    <mxGeometry x="754" y="101" width="44" height="20" as="geometry"/>
                </mxCell>
                <mxCell id="WSuv4SzaL3Qnk7HgxCXB-177" value="10.18.10.211/24" style="text;html=1;align=center;verticalAlign=middle;resizable=0;points=[];autosize=1;strokeColor=none;fillColor=none;fontSize=7;fontFamily=Verdana;" parent="WSuv4SzaL3Qnk7HgxCXB-154" vertex="1">
                    <mxGeometry x="-440" y="45" width="78" height="20" as="geometry"/>
                </mxCell>
                <mxCell id="WSuv4SzaL3Qnk7HgxCXB-178" value="10.18.10.11/24" style="text;html=1;align=center;verticalAlign=middle;resizable=0;points=[];autosize=1;strokeColor=none;fillColor=none;fontSize=7;fontFamily=Verdana;" parent="WSuv4SzaL3Qnk7HgxCXB-154" vertex="1">
                    <mxGeometry x="-254" y="7" width="73" height="20" as="geometry"/>
                </mxCell>
                <mxCell id="WSuv4SzaL3Qnk7HgxCXB-179" value="10.18.10.12/24" style="text;html=1;align=center;verticalAlign=middle;resizable=0;points=[];autosize=1;strokeColor=none;fillColor=none;fontSize=7;fontFamily=Verdana;" parent="WSuv4SzaL3Qnk7HgxCXB-154" vertex="1">
                    <mxGeometry x="-254" y="104" width="73" height="20" as="geometry"/>
                </mxCell>
                <mxCell id="WSuv4SzaL3Qnk7HgxCXB-182" value="vip: 10.18.10.1/24" style="text;html=1;align=center;verticalAlign=middle;resizable=0;points=[];autosize=1;strokeColor=none;fillColor=none;fontSize=7;fontFamily=Verdana;" parent="WSuv4SzaL3Qnk7HgxCXB-154" vertex="1">
                    <mxGeometry x="-296.5" y="21" width="85" height="20" as="geometry"/>
                </mxCell>
                <mxCell id="WSuv4SzaL3Qnk7HgxCXB-185" value="CLIENTS" style="shape=process;whiteSpace=wrap;html=1;backgroundOutline=1;fillColor=#d0cee2;strokeColor=#56517e;fontSize=9;" parent="WSuv4SzaL3Qnk7HgxCXB-154" vertex="1">
                    <mxGeometry x="559" y="100" width="77" height="21" as="geometry"/>
                </mxCell>
                <mxCell id="WSuv4SzaL3Qnk7HgxCXB-186" value="vlan 1810" style="ellipse;whiteSpace=wrap;html=1;fontSize=7;fillColor=#d0cee2;strokeColor=#56517e;" parent="WSuv4SzaL3Qnk7HgxCXB-154" vertex="1">
                    <mxGeometry x="629" y="100.5" width="44" height="20" as="geometry"/>
                </mxCell>
                <mxCell id="WSuv4SzaL3Qnk7HgxCXB-187" value="10.18.11.1/24" style="text;html=1;align=center;verticalAlign=middle;resizable=0;points=[];autosize=1;strokeColor=none;fillColor=none;fontSize=7;fontFamily=Verdana;" parent="WSuv4SzaL3Qnk7HgxCXB-154" vertex="1">
                    <mxGeometry x="609" y="122" width="69" height="20" as="geometry"/>
                </mxCell>
                <mxCell id="WSuv4SzaL3Qnk7HgxCXB-188" value="10.18.11.221/24" style="text;html=1;align=center;verticalAlign=middle;resizable=0;points=[];autosize=1;strokeColor=none;fillColor=none;fontSize=7;fontFamily=Verdana;" parent="WSuv4SzaL3Qnk7HgxCXB-154" vertex="1">
                    <mxGeometry x="727" y="122" width="78" height="20" as="geometry"/>
                </mxCell>
                <mxCell id="JTRN2UEG_rgVW73hcwAd-7" value="USE CASE: Dual Homed L3 network" parent="0" visible="0"/>
                <mxCell id="JTRN2UEG_rgVW73hcwAd-9" value="ATM&lt;br&gt;&lt;font style=&quot;font-size: 7px;&quot;&gt;AS: 65101&lt;/font&gt;" style="shape=process;whiteSpace=wrap;html=1;backgroundOutline=1;fillColor=#60a917;strokeColor=#2D7600;fontSize=9;rotation=0;fontColor=#ffffff;" parent="JTRN2UEG_rgVW73hcwAd-7" vertex="1">
                    <mxGeometry x="-509" y="204" width="77" height="21" as="geometry"/>
                </mxCell>
                <mxCell id="JTRN2UEG_rgVW73hcwAd-23" value="eth2.101" style="shape=parallelogram;perimeter=parallelogramPerimeter;whiteSpace=wrap;html=1;fixedSize=1;fontSize=9;fillColor=#60a917;fontColor=#ffffff;strokeColor=#2D7600;size=7.862745098039284;" parent="JTRN2UEG_rgVW73hcwAd-7" vertex="1">
                    <mxGeometry x="-407" y="193" width="70" height="12" as="geometry"/>
                </mxCell>
                <mxCell id="JTRN2UEG_rgVW73hcwAd-24" value="eth5.1203" style="shape=parallelogram;perimeter=parallelogramPerimeter;whiteSpace=wrap;html=1;fixedSize=1;fontSize=9;fillColor=#60a917;fontColor=#ffffff;strokeColor=#2D7600;size=7.862745098039284;" parent="JTRN2UEG_rgVW73hcwAd-7" vertex="1">
                    <mxGeometry x="-286" y="193" width="70" height="12" as="geometry"/>
                </mxCell>
                <mxCell id="JTRN2UEG_rgVW73hcwAd-25" value="eth2.101" style="shape=parallelogram;perimeter=parallelogramPerimeter;whiteSpace=wrap;html=1;fixedSize=1;fontSize=9;fillColor=#60a917;fontColor=#ffffff;strokeColor=#2D7600;size=7.862745098039284;" parent="JTRN2UEG_rgVW73hcwAd-7" vertex="1">
                    <mxGeometry x="-404" y="285" width="70" height="12" as="geometry"/>
                </mxCell>
                <mxCell id="JTRN2UEG_rgVW73hcwAd-26" value="eth5.1204" style="shape=parallelogram;perimeter=parallelogramPerimeter;whiteSpace=wrap;html=1;fixedSize=1;fontSize=9;fillColor=#60a917;fontColor=#ffffff;strokeColor=#2D7600;size=7.862745098039284;" parent="JTRN2UEG_rgVW73hcwAd-7" vertex="1">
                    <mxGeometry x="-283" y="285" width="70" height="12" as="geometry"/>
                </mxCell>
                <mxCell id="JTRN2UEG_rgVW73hcwAd-27" value="ATM&lt;br&gt;&lt;font style=&quot;font-size: 7px;&quot;&gt;vrf-id: 12&lt;/font&gt;" style="shape=process;whiteSpace=wrap;html=1;backgroundOutline=1;fillColor=#60a917;strokeColor=#2D7600;fontSize=9;rotation=0;fontColor=#ffffff;" parent="JTRN2UEG_rgVW73hcwAd-7" vertex="1">
                    <mxGeometry x="-251" y="264" width="72" height="21" as="geometry"/>
                </mxCell>
                <mxCell id="JTRN2UEG_rgVW73hcwAd-28" value="ATM&lt;br&gt;&lt;font style=&quot;font-size: 7px;&quot;&gt;vrf-id: 12&lt;/font&gt;" style="shape=process;whiteSpace=wrap;html=1;backgroundOutline=1;fillColor=#60a917;strokeColor=#2D7600;fontSize=9;rotation=0;fontColor=#ffffff;" parent="JTRN2UEG_rgVW73hcwAd-7" vertex="1">
                    <mxGeometry x="-251" y="172" width="72" height="21" as="geometry"/>
                </mxCell>
                <mxCell id="JTRN2UEG_rgVW73hcwAd-29" value="ATM&lt;br&gt;&lt;font style=&quot;font-size: 7px;&quot;&gt;vrf-id: 12&lt;/font&gt;" style="shape=process;whiteSpace=wrap;html=1;backgroundOutline=1;fillColor=#60a917;strokeColor=#2D7600;fontSize=9;rotation=0;fontColor=#ffffff;" parent="JTRN2UEG_rgVW73hcwAd-7" vertex="1">
                    <mxGeometry x="567" y="100" width="72" height="21" as="geometry"/>
                </mxCell>
                <mxCell id="JTRN2UEG_rgVW73hcwAd-30" value="10.2.0.0/31" style="text;html=1;align=center;verticalAlign=middle;resizable=0;points=[];autosize=1;strokeColor=none;fillColor=none;fontSize=8;fontColor=#60a917;" parent="JTRN2UEG_rgVW73hcwAd-7" vertex="1">
                    <mxGeometry x="-341" y="179" width="58" height="22" as="geometry"/>
                </mxCell>
                <mxCell id="JTRN2UEG_rgVW73hcwAd-31" value="10.2.0.2/31" style="text;html=1;align=center;verticalAlign=middle;resizable=0;points=[];autosize=1;strokeColor=none;fillColor=none;fontSize=8;fontColor=#60a917;" parent="JTRN2UEG_rgVW73hcwAd-7" vertex="1">
                    <mxGeometry x="-341" y="272" width="58" height="22" as="geometry"/>
                </mxCell>
                <mxCell id="JTRN2UEG_rgVW73hcwAd-32" value="1205" style="ellipse;whiteSpace=wrap;html=1;fontSize=7;fillColor=#60a917;strokeColor=#2D7600;fontColor=#ffffff;" parent="JTRN2UEG_rgVW73hcwAd-7" vertex="1">
                    <mxGeometry x="636" y="114" width="44" height="20" as="geometry"/>
                </mxCell>
                <mxCell id="JTRN2UEG_rgVW73hcwAd-33" value="1205" style="ellipse;whiteSpace=wrap;html=1;fontSize=7;fillColor=#60a917;strokeColor=#2D7600;fontColor=#ffffff;" parent="JTRN2UEG_rgVW73hcwAd-7" vertex="1">
                    <mxGeometry x="727" y="114" width="44" height="20" as="geometry"/>
                </mxCell>
                <mxCell id="JTRN2UEG_rgVW73hcwAd-34" value="Lo1012" style="ellipse;whiteSpace=wrap;html=1;aspect=fixed;fillColor=#60a917;strokeColor=#2D7600;fontSize=6;fontColor=#ffffff;" parent="JTRN2UEG_rgVW73hcwAd-7" vertex="1">
                    <mxGeometry x="626" y="72" width="28" height="28" as="geometry"/>
                </mxCell>
                <mxCell id="JTRN2UEG_rgVW73hcwAd-35" value="10.2.1.0/24" style="text;html=1;align=center;verticalAlign=middle;resizable=0;points=[];autosize=1;strokeColor=none;fillColor=none;fontSize=8;fontColor=#60a917;" parent="JTRN2UEG_rgVW73hcwAd-7" vertex="1">
                    <mxGeometry x="674" y="92" width="58" height="22" as="geometry"/>
                </mxCell>
                <mxCell id="JTRN2UEG_rgVW73hcwAd-36" value="Lo1012" style="ellipse;whiteSpace=wrap;html=1;aspect=fixed;fillColor=#60a917;strokeColor=#2D7600;fontSize=6;fontColor=#ffffff;" parent="JTRN2UEG_rgVW73hcwAd-7" vertex="1">
                    <mxGeometry x="-205" y="190" width="28" height="28" as="geometry"/>
                </mxCell>
                <mxCell id="JTRN2UEG_rgVW73hcwAd-37" value="Lo1012" style="ellipse;whiteSpace=wrap;html=1;aspect=fixed;fillColor=#60a917;strokeColor=#2D7600;fontSize=6;fontColor=#ffffff;" parent="JTRN2UEG_rgVW73hcwAd-7" vertex="1">
                    <mxGeometry x="-205" y="282" width="28" height="28" as="geometry"/>
                </mxCell>
                <mxCell id="JTRN2UEG_rgVW73hcwAd-38" value="ATM&lt;br&gt;&lt;font style=&quot;font-size: 7px;&quot;&gt;AS: 65102&lt;/font&gt;" style="shape=process;whiteSpace=wrap;html=1;backgroundOutline=1;fillColor=#60a917;strokeColor=#2D7600;fontSize=9;rotation=0;fontColor=#ffffff;" parent="JTRN2UEG_rgVW73hcwAd-7" vertex="1">
                    <mxGeometry x="764" y="100" width="77" height="21" as="geometry"/>
                </mxCell>
                <mxCell id="JTRN2UEG_rgVW73hcwAd-39" value="" style="endArrow=classic;html=1;rounded=0;fontSize=12;startSize=8;endSize=8;curved=1;fontColor=#60a917;fillColor=#60a917;strokeColor=#2D7600;" parent="JTRN2UEG_rgVW73hcwAd-7" edge="1">
                    <mxGeometry width="50" height="50" relative="1" as="geometry">
                        <mxPoint x="-394" y="307.6" as="sourcePoint"/>
                        <mxPoint x="-242" y="306" as="targetPoint"/>
                    </mxGeometry>
                </mxCell>
                <mxCell id="JTRN2UEG_rgVW73hcwAd-41" value="CL-INGRESS-ATM-LP-110&lt;div&gt;65000:10110&lt;/div&gt;" style="text;html=1;align=center;verticalAlign=middle;resizable=0;points=[];autosize=1;strokeColor=none;fillColor=none;fontSize=8;fontColor=#60a917;" parent="JTRN2UEG_rgVW73hcwAd-7" vertex="1">
                    <mxGeometry x="-376" y="302" width="114" height="31" as="geometry"/>
                </mxCell>
                <mxCell id="JTRN2UEG_rgVW73hcwAd-43" value="" style="endArrow=classic;html=1;rounded=0;fontSize=12;startSize=8;endSize=8;curved=1;fontColor=#60a917;fillColor=#60a917;strokeColor=#2D7600;entryX=0.045;entryY=1.007;entryDx=0;entryDy=0;entryPerimeter=0;" parent="JTRN2UEG_rgVW73hcwAd-7" edge="1">
                    <mxGeometry width="50" height="50" relative="1" as="geometry">
                        <mxPoint x="-378" y="142" as="sourcePoint"/>
                        <mxPoint x="-240.16499999999996" y="141.17500000000018" as="targetPoint"/>
                    </mxGeometry>
                </mxCell>
                <mxCell id="JTRN2UEG_rgVW73hcwAd-44" value="10.2.254.0/24&lt;br&gt;via Null0" style="text;html=1;align=center;verticalAlign=middle;resizable=0;points=[];autosize=1;strokeColor=none;fillColor=none;fontSize=11;fontColor=#60a917;" parent="JTRN2UEG_rgVW73hcwAd-7" vertex="1">
                    <mxGeometry x="-594" y="195.5" width="85" height="38" as="geometry"/>
                </mxCell>
                <mxCell id="JTRN2UEG_rgVW73hcwAd-45" value="CL-INGRESS-ATM-LP-090&lt;div&gt;65000:10090&lt;/div&gt;" style="text;html=1;align=center;verticalAlign=middle;resizable=0;points=[];autosize=1;strokeColor=none;fillColor=none;fontSize=8;fontColor=#60a917;" parent="JTRN2UEG_rgVW73hcwAd-7" vertex="1">
                    <mxGeometry x="-369" y="137" width="114" height="31" as="geometry"/>
                </mxCell>
                <mxCell id="eVnK4Mu7V92haChsAk7u-1" value="USE-CASE: Firewall + BGP" parent="0" visible="0"/>
                <mxCell id="eVnK4Mu7V92haChsAk7u-2" value="FIREWALL&lt;br&gt;&lt;font style=&quot;font-size: 7px;&quot;&gt;vrf-id: 13&lt;/font&gt;" style="shape=process;whiteSpace=wrap;html=1;backgroundOutline=1;fillColor=#FF9933;strokeColor=#FF8000;fontSize=9;rotation=0;fontColor=#ffffff;" parent="eVnK4Mu7V92haChsAk7u-1" vertex="1">
                    <mxGeometry x="-434" y="12" width="72" height="21" as="geometry"/>
                </mxCell>
                <mxCell id="eVnK4Mu7V92haChsAk7u-3" value="FIREWALL&lt;br&gt;&lt;font style=&quot;font-size: 7px;&quot;&gt;vrf-id: 13&lt;/font&gt;" style="shape=process;whiteSpace=wrap;html=1;backgroundOutline=1;fillColor=#FF9933;strokeColor=#FF8000;fontSize=9;rotation=0;fontColor=#ffffff;" parent="eVnK4Mu7V92haChsAk7u-1" vertex="1">
                    <mxGeometry x="-253" y="-40" width="72" height="21" as="geometry"/>
                </mxCell>
                <mxCell id="eVnK4Mu7V92haChsAk7u-4" value="FIREWALL&lt;br&gt;&lt;font style=&quot;font-size: 7px;&quot;&gt;vrf-id: 13&lt;/font&gt;" style="shape=process;whiteSpace=wrap;html=1;backgroundOutline=1;fillColor=#FF9933;strokeColor=#FF8000;fontSize=9;rotation=0;fontColor=#ffffff;" parent="eVnK4Mu7V92haChsAk7u-1" vertex="1">
                    <mxGeometry x="-253" y="74" width="72" height="21" as="geometry"/>
                </mxCell>
                <mxCell id="eVnK4Mu7V92haChsAk7u-5" value="Lo1013" style="ellipse;whiteSpace=wrap;html=1;aspect=fixed;fillColor=#FF9933;strokeColor=#FF8000;fontSize=6;fontColor=#ffffff;" parent="eVnK4Mu7V92haChsAk7u-1" vertex="1">
                    <mxGeometry x="-273" y="84" width="28" height="28" as="geometry"/>
                </mxCell>
                <mxCell id="eVnK4Mu7V92haChsAk7u-7" value="Lo1013" style="ellipse;whiteSpace=wrap;html=1;aspect=fixed;fillColor=#FF9933;strokeColor=#FF8000;fontSize=6;fontColor=#ffffff;" parent="eVnK4Mu7V92haChsAk7u-1" vertex="1">
                    <mxGeometry x="-273" y="-53" width="28" height="28" as="geometry"/>
                </mxCell>
                <mxCell id="eVnK4Mu7V92haChsAk7u-8" value="vlan 1301" style="ellipse;whiteSpace=wrap;html=1;fontSize=7;fillColor=#FF9933;strokeColor=#FF8000;fontColor=#FFFFFF;" parent="eVnK4Mu7V92haChsAk7u-1" vertex="1">
                    <mxGeometry x="-273" y="-19" width="44" height="20" as="geometry"/>
                </mxCell>
                <mxCell id="eVnK4Mu7V92haChsAk7u-9" value="vlan 1301" style="ellipse;whiteSpace=wrap;html=1;fontSize=7;fillColor=#FF9933;strokeColor=#FF8000;fontColor=#FFFFFF;" parent="eVnK4Mu7V92haChsAk7u-1" vertex="1">
                    <mxGeometry x="-364" y="12.5" width="44" height="20" as="geometry"/>
                </mxCell>
                <mxCell id="eVnK4Mu7V92haChsAk7u-10" value="vlan 1301" style="ellipse;whiteSpace=wrap;html=1;fontSize=7;fillColor=#FF9933;strokeColor=#FF8000;fontColor=#FFFFFF;" parent="eVnK4Mu7V92haChsAk7u-1" vertex="1">
                    <mxGeometry x="-273" y="54" width="44" height="20" as="geometry"/>
                </mxCell>
                <mxCell id="eVnK4Mu7V92haChsAk7u-12" style="edgeStyle=none;curved=1;rounded=0;orthogonalLoop=1;jettySize=auto;html=1;entryX=0;entryY=0.5;entryDx=0;entryDy=0;fontSize=12;startSize=8;endSize=8;strokeColor=#FF0000;exitX=0.714;exitY=0.134;exitDx=0;exitDy=0;exitPerimeter=0;" parent="eVnK4Mu7V92haChsAk7u-1" source="eVnK4Mu7V92haChsAk7u-9" target="eVnK4Mu7V92haChsAk7u-7" edge="1">
                    <mxGeometry relative="1" as="geometry"/>
                </mxCell>
                <mxCell id="eVnK4Mu7V92haChsAk7u-13" style="edgeStyle=none;curved=1;rounded=0;orthogonalLoop=1;jettySize=auto;html=1;entryX=0;entryY=0.5;entryDx=0;entryDy=0;fontSize=12;startSize=8;endSize=8;strokeColor=#FF0000;exitX=0.63;exitY=0.838;exitDx=0;exitDy=0;exitPerimeter=0;" parent="eVnK4Mu7V92haChsAk7u-1" source="eVnK4Mu7V92haChsAk7u-9" target="eVnK4Mu7V92haChsAk7u-5" edge="1">
                    <mxGeometry relative="1" as="geometry"/>
                </mxCell>
                <mxCell id="eVnK4Mu7V92haChsAk7u-11" value="Lo1013" style="ellipse;whiteSpace=wrap;html=1;aspect=fixed;fillColor=#FF9933;strokeColor=#FF8000;fontSize=6;fontColor=#ffffff;" parent="eVnK4Mu7V92haChsAk7u-1" vertex="1">
                    <mxGeometry x="-462" y="8.5" width="28" height="28" as="geometry"/>
                </mxCell>
                <mxCell id="VtpT0iKbVLhDBIBKvvkI-1" value="VPWS ce03 to ce04" parent="0" visible="0"/>
                <mxCell id="VtpT0iKbVLhDBIBKvvkI-8" value="FIREWALL&lt;br&gt;&lt;font style=&quot;font-size: 7px;&quot;&gt;vrf-id: 14&lt;/font&gt;" style="shape=process;whiteSpace=wrap;html=1;backgroundOutline=1;fillColor=#e3c800;strokeColor=#B09500;fontSize=9;rotation=0;fontColor=#000000;" parent="VtpT0iKbVLhDBIBKvvkI-1" vertex="1">
                    <mxGeometry x="-475" y="177" width="72" height="21" as="geometry"/>
                </mxCell>
                <mxCell id="VtpT0iKbVLhDBIBKvvkI-9" value="vlan 1401" style="ellipse;whiteSpace=wrap;html=1;fontSize=7;fillColor=#e3c800;strokeColor=#B09500;fontColor=#000000;" parent="VtpT0iKbVLhDBIBKvvkI-1" vertex="1">
                    <mxGeometry x="-405" y="177.5" width="44" height="20" as="geometry"/>
                </mxCell>
                <mxCell id="VtpT0iKbVLhDBIBKvvkI-10" value="FIREWALL&lt;br&gt;&lt;font style=&quot;font-size: 7px;&quot;&gt;vrf-id: 14&lt;/font&gt;" style="shape=process;whiteSpace=wrap;html=1;backgroundOutline=1;fillColor=#e3c800;strokeColor=#B09500;fontSize=9;rotation=0;fontColor=#000000;" parent="VtpT0iKbVLhDBIBKvvkI-1" vertex="1">
                    <mxGeometry x="-475" y="269" width="72" height="21" as="geometry"/>
                </mxCell>
                <mxCell id="VtpT0iKbVLhDBIBKvvkI-11" value="vlan 1401" style="ellipse;whiteSpace=wrap;html=1;fontSize=7;fillColor=#e3c800;strokeColor=#B09500;fontColor=#000000;" parent="VtpT0iKbVLhDBIBKvvkI-1" vertex="1">
                    <mxGeometry x="-405" y="269.5" width="44" height="20" as="geometry"/>
                </mxCell>
                <mxCell id="EvUtdz9DVR0Km_-Acy3T-1" value="IP Addresses" parent="0" visible="0"/>
                <mxCell id="EvUtdz9DVR0Km_-Acy3T-2" value="&lt;font style=&quot;font-size: 8px;&quot;&gt;10.255.3.0/31&lt;/font&gt;" style="text;html=1;align=center;verticalAlign=middle;whiteSpace=wrap;rounded=0;rotation=10;" parent="EvUtdz9DVR0Km_-Acy3T-1" vertex="1">
                    <mxGeometry x="-64" y="-21" width="60" height="30" as="geometry"/>
                </mxCell>
                <mxCell id="EvUtdz9DVR0Km_-Acy3T-4" value="&lt;font style=&quot;font-size: 8px;&quot;&gt;10.255.3.4/31&lt;/font&gt;" style="text;html=1;align=center;verticalAlign=middle;whiteSpace=wrap;rounded=0;rotation=45;" parent="EvUtdz9DVR0Km_-Acy3T-1" vertex="1">
                    <mxGeometry x="-53" y="32" width="60" height="30" as="geometry"/>
                </mxCell>
                <mxCell id="EvUtdz9DVR0Km_-Acy3T-5" value="&lt;font style=&quot;font-size: 8px;&quot;&gt;10.255.3.2/31&lt;/font&gt;" style="text;html=1;align=center;verticalAlign=middle;whiteSpace=wrap;rounded=0;rotation=30;" parent="EvUtdz9DVR0Km_-Acy3T-1" vertex="1">
                    <mxGeometry x="-61" y="-68" width="60" height="30" as="geometry"/>
                </mxCell>
                <mxCell id="EvUtdz9DVR0Km_-Acy3T-6" value="&lt;font style=&quot;font-size: 8px;&quot;&gt;10.255.3.6/31&lt;/font&gt;" style="text;html=1;align=center;verticalAlign=middle;whiteSpace=wrap;rounded=0;rotation=0;" parent="EvUtdz9DVR0Km_-Acy3T-1" vertex="1">
                    <mxGeometry x="140" y="-8" width="60" height="30" as="geometry"/>
                </mxCell>
                <mxCell id="EvUtdz9DVR0Km_-Acy3T-7" value="&lt;font style=&quot;font-size: 8px;&quot;&gt;10.255.3.26/31&lt;/font&gt;" style="text;html=1;align=center;verticalAlign=middle;whiteSpace=wrap;rounded=0;rotation=-30;" parent="EvUtdz9DVR0Km_-Acy3T-1" vertex="1">
                    <mxGeometry x="359" y="-72" width="59" height="30" as="geometry"/>
                </mxCell>
                <mxCell id="EvUtdz9DVR0Km_-Acy3T-10" value="&lt;font style=&quot;font-size: 8px;&quot;&gt;10.255.3.22/31&lt;/font&gt;" style="text;html=1;align=center;verticalAlign=middle;whiteSpace=wrap;rounded=0;rotation=0;" parent="EvUtdz9DVR0Km_-Acy3T-1" vertex="1">
                    <mxGeometry x="154" y="194" width="60" height="30" as="geometry"/>
                </mxCell>
                <mxCell id="EvUtdz9DVR0Km_-Acy3T-11" value="&lt;font style=&quot;font-size: 8px;&quot;&gt;10.255.3.16/31&lt;/font&gt;" style="text;html=1;align=center;verticalAlign=middle;whiteSpace=wrap;rounded=0;rotation=-70;" parent="EvUtdz9DVR0Km_-Acy3T-1" vertex="1">
                    <mxGeometry x="414" y="100" width="60" height="30" as="geometry"/>
                </mxCell>
                <mxCell id="EvUtdz9DVR0Km_-Acy3T-15" value="&lt;font style=&quot;font-size: 8px;&quot;&gt;&lt;b&gt;10.255.4.1&lt;/b&gt;&lt;/font&gt;" style="text;html=1;align=center;verticalAlign=middle;whiteSpace=wrap;rounded=0;rotation=0;" parent="EvUtdz9DVR0Km_-Acy3T-1" vertex="1">
                    <mxGeometry x="50" y="-68" width="60" height="30" as="geometry"/>
                </mxCell>
                <mxCell id="EvUtdz9DVR0Km_-Acy3T-16" value="&lt;font style=&quot;font-size: 8px;&quot;&gt;&lt;b&gt;10.255.4.2&lt;/b&gt;&lt;/font&gt;" style="text;html=1;align=center;verticalAlign=middle;whiteSpace=wrap;rounded=0;rotation=0;" parent="EvUtdz9DVR0Km_-Acy3T-1" vertex="1">
                    <mxGeometry x="237" y="-68" width="60" height="30" as="geometry"/>
                </mxCell>
                <mxCell id="EvUtdz9DVR0Km_-Acy3T-17" value="&lt;font style=&quot;font-size: 8px;&quot;&gt;&lt;b&gt;10.255.4.4&lt;/b&gt;&lt;/font&gt;" style="text;html=1;align=center;verticalAlign=middle;whiteSpace=wrap;rounded=0;rotation=0;" parent="EvUtdz9DVR0Km_-Acy3T-1" vertex="1">
                    <mxGeometry x="251" y="266" width="60" height="30" as="geometry"/>
                </mxCell>
                <mxCell id="EvUtdz9DVR0Km_-Acy3T-18" value="&lt;font style=&quot;font-size: 8px;&quot;&gt;&lt;b&gt;10.255.4.3&lt;/b&gt;&lt;/font&gt;" style="text;html=1;align=center;verticalAlign=middle;whiteSpace=wrap;rounded=0;rotation=0;" parent="EvUtdz9DVR0Km_-Acy3T-1" vertex="1">
                    <mxGeometry x="58" y="266" width="60" height="30" as="geometry"/>
                </mxCell>
                <mxCell id="EvUtdz9DVR0Km_-Acy3T-19" value="&lt;font style=&quot;font-size: 8px;&quot;&gt;&lt;b&gt;10.255.1.1&lt;/b&gt;&lt;/font&gt;" style="text;html=1;align=center;verticalAlign=middle;whiteSpace=wrap;rounded=0;rotation=0;" parent="EvUtdz9DVR0Km_-Acy3T-1" vertex="1">
                    <mxGeometry x="-167" y="-180" width="60" height="30" as="geometry"/>
                </mxCell>
                <mxCell id="EvUtdz9DVR0Km_-Acy3T-20" value="&lt;font style=&quot;font-size: 8px;&quot;&gt;&lt;b&gt;10.255.1.2&lt;/b&gt;&lt;/font&gt;" style="text;html=1;align=center;verticalAlign=middle;whiteSpace=wrap;rounded=0;rotation=0;" parent="EvUtdz9DVR0Km_-Acy3T-1" vertex="1">
                    <mxGeometry x="-169" y="-81" width="60" height="30" as="geometry"/>
                </mxCell>
                <mxCell id="40" value="&lt;font style=&quot;font-size: 8px;&quot;&gt;10.255.3.4/31&lt;/font&gt;" style="text;html=1;align=center;verticalAlign=middle;whiteSpace=wrap;rounded=0;rotation=45;" vertex="1" parent="EvUtdz9DVR0Km_-Acy3T-1">
                    <mxGeometry x="-69" y="70" width="60" height="30" as="geometry"/>
                </mxCell>
                <mxCell id="41" value="&lt;font style=&quot;font-size: 8px;&quot;&gt;10.255.3.4/31&lt;/font&gt;" style="text;html=1;align=center;verticalAlign=middle;whiteSpace=wrap;rounded=0;rotation=70;" vertex="1" parent="EvUtdz9DVR0Km_-Acy3T-1">
                    <mxGeometry x="-100" y="144" width="60" height="30" as="geometry"/>
                </mxCell>
                <mxCell id="44" value="&lt;font style=&quot;font-size: 8px;&quot;&gt;10.255.3.6/31&lt;/font&gt;" style="text;html=1;align=center;verticalAlign=middle;whiteSpace=wrap;rounded=0;rotation=-90;" vertex="1" parent="EvUtdz9DVR0Km_-Acy3T-1">
                    <mxGeometry x="44" y="100" width="60" height="30" as="geometry"/>
                </mxCell>
                <mxCell id="45" value="&lt;font style=&quot;font-size: 8px;&quot;&gt;10.255.3.6/31&lt;/font&gt;" style="text;html=1;align=center;verticalAlign=middle;whiteSpace=wrap;rounded=0;rotation=90;" vertex="1" parent="EvUtdz9DVR0Km_-Acy3T-1">
                    <mxGeometry x="259" y="105" width="60" height="30" as="geometry"/>
                </mxCell>
                <mxCell id="47" value="&lt;font style=&quot;font-size: 8px;&quot;&gt;10.255.3.22/31&lt;/font&gt;" style="text;html=1;align=center;verticalAlign=middle;whiteSpace=wrap;rounded=0;rotation=0;" vertex="1" parent="EvUtdz9DVR0Km_-Acy3T-1">
                    <mxGeometry x="147" y="349" width="60" height="30" as="geometry"/>
                </mxCell>
                <mxCell id="48" value="&lt;font style=&quot;font-size: 8px;&quot;&gt;10.255.3.26/31&lt;/font&gt;" style="text;html=1;align=center;verticalAlign=middle;whiteSpace=wrap;rounded=0;rotation=-45;" vertex="1" parent="EvUtdz9DVR0Km_-Acy3T-1">
                    <mxGeometry x="370" y="-4" width="59" height="30" as="geometry"/>
                </mxCell>
                <mxCell id="52" value="&lt;font style=&quot;font-size: 8px;&quot;&gt;10.255.3.4/31&lt;/font&gt;" style="text;html=1;align=center;verticalAlign=middle;whiteSpace=wrap;rounded=0;rotation=-65;" vertex="1" parent="EvUtdz9DVR0Km_-Acy3T-1">
                    <mxGeometry x="7" y="266" width="60" height="30" as="geometry"/>
                </mxCell>
                <mxCell id="53" value="&lt;font style=&quot;font-size: 8px;&quot;&gt;10.255.3.4/31&lt;/font&gt;" style="text;html=1;align=center;verticalAlign=middle;whiteSpace=wrap;rounded=0;rotation=60;" vertex="1" parent="EvUtdz9DVR0Km_-Acy3T-1">
                    <mxGeometry x="299" y="275" width="60" height="30" as="geometry"/>
                </mxCell>
                <mxCell id="54" value="&lt;font style=&quot;font-size: 8px;&quot;&gt;&lt;b&gt;10.255.2.1&lt;/b&gt;&lt;/font&gt;" style="text;html=1;align=center;verticalAlign=middle;whiteSpace=wrap;rounded=0;rotation=0;" vertex="1" parent="EvUtdz9DVR0Km_-Acy3T-1">
                    <mxGeometry x="-18" y="432" width="60" height="30" as="geometry"/>
                </mxCell>
                <mxCell id="55" value="&lt;font style=&quot;font-size: 8px;&quot;&gt;&lt;b&gt;10.255.3.1&lt;/b&gt;&lt;/font&gt;" style="text;html=1;align=center;verticalAlign=middle;whiteSpace=wrap;rounded=0;rotation=0;" vertex="1" parent="EvUtdz9DVR0Km_-Acy3T-1">
                    <mxGeometry x="362" y="432" width="60" height="30" as="geometry"/>
                </mxCell>
                <mxCell id="57" value="&lt;font style=&quot;font-size: 8px;&quot;&gt;10.255.3.6/31&lt;/font&gt;" style="text;html=1;align=center;verticalAlign=middle;whiteSpace=wrap;rounded=0;rotation=0;" vertex="1" parent="EvUtdz9DVR0Km_-Acy3T-1">
                    <mxGeometry x="140" y="-147" width="60" height="30" as="geometry"/>
                </mxCell>
                <mxCell id="58" value="&lt;font style=&quot;font-size: 8px;&quot;&gt;&lt;b&gt;10.255.5.1&lt;/b&gt;&lt;/font&gt;" style="text;html=1;align=center;verticalAlign=middle;whiteSpace=wrap;rounded=0;rotation=0;" vertex="1" parent="EvUtdz9DVR0Km_-Acy3T-1">
                    <mxGeometry x="490" y="-191" width="60" height="30" as="geometry"/>
                </mxCell>
                <mxCell id="EvUtdz9DVR0Km_-Acy3T-33" value="Technology" parent="0" visible="0"/>
                <mxCell id="EvUtdz9DVR0Km_-Acy3T-43" value="&lt;font style=&quot;font-size: 10px;&quot;&gt;iBGP&lt;/font&gt;" style="text;html=1;align=center;verticalAlign=middle;resizable=0;points=[];autosize=1;strokeColor=none;fillColor=none;fontSize=8;fontFamily=Verdana;rotation=0;" parent="EvUtdz9DVR0Km_-Acy3T-33" vertex="1">
                    <mxGeometry x="322" y="122" width="41" height="24" as="geometry"/>
                </mxCell>
                <mxCell id="EvUtdz9DVR0Km_-Acy3T-47" value="&lt;font style=&quot;font-size: 10px;&quot;&gt;iBGP&lt;/font&gt;" style="text;html=1;align=center;verticalAlign=middle;resizable=0;points=[];autosize=1;strokeColor=none;fillColor=none;fontSize=8;fontFamily=Verdana;rotation=0;" parent="EvUtdz9DVR0Km_-Acy3T-33" vertex="1">
                    <mxGeometry x="153" y="72" width="41" height="24" as="geometry"/>
                </mxCell>
            </root>
        </mxGraphModel>
    </diagram>
</mxfile>